<?xml version="1.0" encoding="UTF-8"?>
<?xml-model href="https://raw.githubusercontent.com/praashie/DecentSampler-schema/main/DecentSampler.xsd"?>
<DecentSampler>
	<effects>
		<effect type="highpass" frequency="100.0" />
		<effect type="chorus" mix="0.1377191245555878" modDepth="0.2" modRate="0.2" />
		<effect type="delay" delayTimeFormat="musical_time" delayTime="10" stereoOffset="0.01" feedback="0.3" wetLevel="0.5" />
		<effect type="reverb" wetLevel="1.0" />
		<effect type="gain" level="0" />
	</effects>
	<ui width="812" height="375" bgImage="Resources/Images/French Horn.png">
		<tab name="main">
			<labeled-knob x="565" y="25" width="90" textSize="20" textColor="FF000000" trackForegroundColor="CC000000" trackBackgroundColor="66999999" label="Attack" type="float" minValue="0.0" maxValue="4.0" value="0.01">
				<binding type="amp" level="instrument" position="0" parameter="ENV_ATTACK" />
			</labeled-knob>
			<labeled-knob x="635" y="25" width="90" textSize="20" textColor="FF000000" trackForegroundColor="CC000000" trackBackgroundColor="66999999" label="Release" type="float" minValue="0.0" maxValue="20.0" value="0.16">
				<binding type="amp" level="instrument" position="0" parameter="ENV_RELEASE" />
			</labeled-knob>
			<labeled-knob x="705" y="25" width="90" textSize="20" textColor="FF000000" trackForegroundColor="CC000000" trackBackgroundColor="66999999" label="Highpass" type="float" minValue="0" maxValue="1" value="0">
				<binding type="effect" level="instrument" position="0" parameter="FX_FILTER_FREQUENCY" translation="table" translationTable="0,33;0.3,150;0.4,450;0.5,1100;0.7,4100;0.9,11000;11,22000" />
			</labeled-knob>
			<labeled-knob x="565" y="115" width="90" textSize="20" textColor="FF000000" trackForegroundColor="CC000000" trackBackgroundColor="66999999" label="Chorus" type="float" minValue="0.0" maxValue="1" value="0">
				<binding type="effect" level="instrument" position="1" parameter="FX_MIX" />
			</labeled-knob>
			<labeled-knob x="635" y="115" width="90" textSize="20" textColor="FF000000" trackForegroundColor="CC000000" trackBackgroundColor="66999999" label="Delay" type="musical_time" minValue="0" maxValue="20" value="0" defaultValue="0">
				<binding type="effect" level="instrument" position="2" parameter="FX_DELAY_TIME" />
			</labeled-knob>
			<labeled-knob x="705" y="115" width="90" textSize="20" textColor="FF000000" trackForegroundColor="CC000000" trackBackgroundColor="66999999" label="Reverb" type="float" minValue="0.0" maxValue="1" value="0">
				<binding type="effect" level="instrument" position="3" parameter="FX_REVERB_WET_LEVEL" />
			</labeled-knob>
		</tab>
		<keyboard />
	</ui>
	<groups release="0.026">
		<group name="000.061" ampVelTrack="1">
			<sample end="265002" hiNote="48" hiVel="127" loNote="0" loVel="0" loopEnabled="true" loopEnd="265000" loopStart="100000" path="Resources/French Horn - Ensemble Samples/000.061.wav" rootNote="28" />
			<sample end="265002" hiNote="52" hiVel="127" loNote="49" loVel="0" loopEnabled="true" loopEnd="265000" loopStart="100000" path="Resources/French Horn - Ensemble Samples/000.061.004.wav" rootNote="52" />
			<sample end="265002" hiNote="56" hiVel="127" loNote="53" loVel="0" loopEnabled="true" loopEnd="265000" loopStart="100000" path="Resources/French Horn - Ensemble Samples/000.061.005.wav" rootNote="55" />
			<sample end="265002" hiNote="60" hiVel="127" loNote="57" loVel="0" loopEnabled="true" loopEnd="265000" loopStart="100000" path="Resources/French Horn - Ensemble Samples/000.061.006.wav" rootNote="60" />
			<sample end="265002" hiNote="64" hiVel="127" loNote="61" loVel="0" loopEnabled="true" loopEnd="265000" loopStart="100000" path="Resources/French Horn - Ensemble Samples/000.061.007.wav" rootNote="64" />
			<sample end="265002" hiNote="68" hiVel="127" loNote="65" loVel="0" loopEnabled="true" loopEnd="265000" loopStart="100000" path="Resources/French Horn - Ensemble Samples/000.061.008.wav" rootNote="67" />
			<sample end="265002" hiNote="72" hiVel="127" loNote="69" loVel="0" loopEnabled="true" loopEnd="265000" loopStart="100000" path="Resources/French Horn - Ensemble Samples/000.061.009.wav" rootNote="72" />
			<sample end="265002" hiNote="76" hiVel="127" loNote="73" loVel="0" loopEnabled="true" loopEnd="265000" loopStart="100000" path="Resources/French Horn - Ensemble Samples/000.061.010.wav" rootNote="76" />
			<sample end="265002" hiNote="80" hiVel="127" loNote="77" loVel="0" loopEnabled="true" loopEnd="265000" loopStart="10000" path="Resources/French Horn - Ensemble Samples/000.061.011.wav" rootNote="79" />
			<sample end="265002" hiNote="108" hiVel="127" loNote="81" loVel="0" loopEnabled="true" loopEnd="265000" loopStart="100000" path="Resources/French Horn - Ensemble Samples/000.061.012.wav" rootNote="84" />
		</group>
	</groups>
	<midi>
		<cc number="1">
			<binding type="effect" level="instrument" position="4" parameter="LEVEL" translation="linear" translationOutputMin="-30" translationOutputMax="0" />
		</cc>
	</midi>
	<modulators />
</DecentSampler>
